# xmcd
#
# Track frame offsets: 
#        150
#        22209
#        45771
#        71503
#        91467
#        111269
#        134759
#        158497
#        180044
#        199999
#
# Disc length: 2958 seconds
#
# Revision: 1
# Processed by: cddbd v1.5.1PL0 Copyright (c) Steve Scherf et al.
# Submitted via: ExactAudioCopy v0.95a5
#
DISCID=800b8c0a
DTITLE=DTS-CD - Love With Guitar 情系吉它
DYEAR=1900
DGENRE=Musical
TTITLE0=卡萨布兰卡
TTITLE1=顺其自然
TTITLE2=雨中旋律
TTITLE3=此情可待
TTITLE4=爱情故事
TTITLE5=不管有多难
TTITLE6=难以表白
TTITLE7=用吻封缄
TTITLE8=你的爱人
TTITLE9=无法改变对你的爱
EXTD=
EXTT0=
EXTT1=
EXTT2=
EXTT3=
EXTT4=
EXTT5=
EXTT6=
EXTT7=
EXTT8=
EXTT9=
PLAYORDER=
